<?xml version="1.0" encoding="UTF-8"?>
<svg id="Layer_2" data-name="Layer 2" xmlns="http://www.w3.org/2000/svg" viewBox="0 0 137.56 137.56">
  <defs>
    <style>
      .cls-1 {
        fill: #001e00;
      }

      .cls-2 {
        fill: #fff;
      }

      .cls-3 {
        fill: #fae54c;
      }

      .cls-4 {
        fill: #fc9753;
      }

      .cls-5 {
        fill: #1ce86c;
      }

      .cls-6 {
        fill: #1e905d;
      }
    </style>
  </defs>
  <path class="cls-5" d="m99.71,136.12c19.04,0,34.48-15.44,34.48-34.48h-34.48v34.48Z"/>
  <path class="cls-3" d="m34.48,1C15.44,1,0,16.44,0,35.48h34.48V1Z"/>
  <path class="cls-4" d="m13.98,35.48c0,11.84,9.18,21.43,20.5,21.43v-21.43H13.98Z"/>
  <path class="cls-5" d="m34.48,1h30.9c18.96,0,34.33,15.54,34.33,34.7v65.94h-30.9c-18.96,0-34.33-15.54-34.33-34.7V1Z"/>
  <path class="cls-6" d="m65.23,63.44c0,21.1,16.27,38.21,36.34,38.21s36.34-17.11,36.34-38.21h-72.69Z"/>
  <path class="cls-2" d="m82.94,35.95c0,9.52-7.72,17.24-17.24,17.24s-17.24-7.72-17.24-17.24,7.72-17.24,17.24-17.24,17.24,7.72,17.24,17.24Z"/>
  <path class="cls-2" d="m82.94,35.95c0,9.52-7.72,17.24-17.24,17.24s-17.24-7.72-17.24-17.24,7.72-17.24,17.24-17.24,17.24,7.72,17.24,17.24Z"/>
  <path class="cls-2" d="m75.02,36.41c0,5.15-4.17,9.32-9.32,9.32s-9.32-4.17-9.32-9.32,4.17-9.32,9.32-9.32,9.32,4.17,9.32,9.32Z"/>
  <path class="cls-1" d="m75.02,36.41c0,5.15-4.17,9.32-9.32,9.32s-9.32-4.17-9.32-9.32,4.17-9.32,9.32-9.32,9.32,4.17,9.32,9.32Z"/>
</svg>